<?xml version="1.0" encoding="UTF-8"?>
<svg version="1.1" xmlns="http://www.w3.org/2000/svg" width="40" height="40">
<path d="M0 0 C4.51821851 2.63139692 7.29708438 5.46329194 9.7109375 10.08984375 C9.7109375 11.07984375 9.7109375 12.06984375 9.7109375 13.08984375 C7.9609375 12.96484375 7.9609375 12.96484375 5.7109375 12.08984375 C4.35815635 10.10294644 3.02525445 8.10239157 1.7109375 6.08984375 C-2.66905245 3.27950685 -7.26030447 3.47018636 -12.2890625 4.08984375 C-16.48030191 5.91874822 -18.43697098 7.78788111 -20.2265625 11.90234375 C-21.89894158 17.26789331 -21.1306372 21.26643189 -18.7890625 26.33984375 C-15.4399439 30.02387421 -12.03341255 30.93416874 -7.2890625 32.08984375 C-7.6190625 31.42984375 -7.9490625 30.76984375 -8.2890625 30.08984375 C-9.3821875 29.82171875 -10.4753125 29.55359375 -11.6015625 29.27734375 C-15.9105265 27.88971127 -17.11340491 27.02276325 -19.2890625 23.08984375 C-19.93693909 20.09532753 -20.32074271 17.15648849 -20.2890625 14.08984375 C-19.9590625 13.75984375 -19.6290625 13.42984375 -19.2890625 13.08984375 C-13.99984628 13.39499084 -11.09626664 14.39141688 -7.2890625 18.08984375 C-6.6290625 19.07984375 -5.9690625 20.06984375 -5.2890625 21.08984375 C-4.7115625 20.30609375 -4.1340625 19.52234375 -3.5390625 18.71484375 C-0.38583669 15.03608031 -0.38583669 15.03608031 2.7109375 14.08984375 C5.40190277 13.93977069 8.01095113 13.9998442 10.7109375 14.08984375 C11.16246481 20.5241079 10.52729892 23.82945368 6.7109375 29.08984375 C4.27876286 30.91397473 2.47380181 31.91547476 -0.4765625 32.58984375 C-2.69452531 32.98891021 -2.69452531 32.98891021 -4.2890625 36.08984375 C-10.68048648 35.8372183 -15.25173678 35.40755151 -20.2890625 31.08984375 C-25.02879204 25.83771101 -25.64311407 21.77166141 -25.5703125 14.8828125 C-25.03392119 9.5561488 -22.71847396 6.41204935 -18.7890625 2.77734375 C-12.87171362 -1.21686674 -6.91113162 -2.74794141 0 0 Z M-0.2890625 20.08984375 C-2.89597379 23.47882843 -3.2890625 24.71718988 -3.2890625 29.08984375 C1.62305034 27.86181554 4.06497073 26.46586571 6.7109375 22.08984375 C7.04686258 19.37938305 7.04686258 19.37938305 6.7109375 17.08984375 C4.15078728 17.08984375 1.83084816 18.86029557 -0.2890625 20.08984375 Z " fill="#68962F" transform="translate(27.2890625,3.91015625)"/>
<path d="M0 0 C3.51865145 0.3015987 5.00757452 1.00605962 7.8125 3.25 C10 6 10 6 10.3125 8.8125 C10.1578125 9.8953125 10.1578125 9.8953125 10 11 C9.34 10.67 8.68 10.34 8 10 C8 9.01 8 8.02 8 7 C7.34 7 6.68 7 6 7 C6 6.34 6 5.68 6 5 C5.34 5 4.68 5 4 5 C4.7425 6.1446875 4.7425 6.1446875 5.5 7.3125 C7 10 7 10 7 13 C4.83125748 12.49396008 3.00032373 12.00016187 1 11 C-0.37097852 7.43545584 -0.07243154 3.76644005 0 0 Z " fill="#5C9915" transform="translate(9,18)"/>
<path d="M0 0 C2.9375 0.875 2.9375 0.875 5 2 C5.33 2.66 5.66 3.32 6 4 C4.82244141 3.93039063 4.82244141 3.93039063 3.62109375 3.859375 C-3.25004061 3.62331149 -7.39819012 3.92595645 -13 8 C-12.62951193 5.4065835 -11.94398898 3.91934413 -10.4375 1.75 C-7.04649842 -0.68456524 -3.98523212 -0.53769005 0 0 Z " fill="#629522" transform="translate(21,4)"/>
<path d="M0 0 C0.66 0.33 1.32 0.66 2 1 C1.34 1.66 0.68 2.32 0 3 C-0.60713803 4.85483454 -1.14131052 6.73421385 -1.625 8.625 C-1.88539063 9.62789062 -2.14578125 10.63078125 -2.4140625 11.6640625 C-2.60742188 12.43492188 -2.80078125 13.20578125 -3 14 C-3.33 13.01 -3.66 12.02 -4 11 C-4.66 11 -5.32 11 -6 11 C-5.67 15.29 -5.34 19.58 -5 24 C-7.98248356 19.52627466 -7.60815224 15.24622893 -7 10 C-5.55892805 6.05302462 -3.2128613 2.73093211 0 0 Z " fill="#6F9A37" transform="translate(9,6)"/>
<path d="M0 0 C3.63 1.98 7.26 3.96 11 6 C11 6.33 11 6.66 11 7 C8.69 7 6.38 7 4 7 C4 6.34 4 5.68 4 5 C3.01 4.67 2.02 4.34 1 4 C0.67 2.68 0.34 1.36 0 0 Z " fill="#5F931F" transform="translate(8,31)"/>
<path d="M0 0 C6.98629919 -0.50604984 11.20200116 -0.0333905 17 4 C15.4375 4.6875 15.4375 4.6875 13 5 C10.64903024 4.0421975 8.31648799 3.03842565 6 2 C4.01178687 1.60235737 2.01267638 1.24544834 0 1 C0 0.67 0 0.34 0 0 Z " fill="#719A3D" transform="translate(15,3)"/>
<path d="M0 0 C0.66 0 1.32 0 2 0 C2 0.99 2 1.98 2 3 C5.465 2.505 5.465 2.505 9 2 C9 2.66 9 3.32 9 4 C8.195625 4.12375 7.39125 4.2475 6.5625 4.375 C5.2940625 4.684375 5.2940625 4.684375 4 5 C3.67 5.66 3.34 6.32 3 7 C2.01 6.67 1.02 6.34 0 6 C0 4.02 0 2.04 0 0 Z " fill="#60981C" transform="translate(20,31)"/>
<path d="M0 0 C2.35171131 0.59861742 4.6859378 1.26924352 7 2 C7.33 2.66 7.66 3.32 8 4 C4.37 3.67 0.74 3.34 -3 3 C-2.01 2.67 -1.02 2.34 0 2 C0 1.34 0 0.68 0 0 Z " fill="#5C901C" transform="translate(19,4)"/>
</svg>
